<?xml version="1.0" encoding="UTF-8" standalone="no"?>
<!DOCTYPE svg PUBLIC "-//W3C//DTD SVG 1.1//EN"
 "http://www.w3.org/Graphics/SVG/1.1/DTD/svg11.dtd">
<!-- Generated by graphviz version 2.30.1 (20170916.1124)
 -->
<!-- Title: G Pages: 1 -->
<svg width="4771pt" height="260pt"
 viewBox="0.00 0.00 4771.00 260.00" xmlns="http://www.w3.org/2000/svg" xmlns:xlink="http://www.w3.org/1999/xlink">
<g id="graph0" class="graph" transform="scale(1 1) rotate(0) translate(4 256)">
<title>G</title>
<polygon fill="white" stroke="white" points="-4,5 -4,-256 4768,-256 4768,5 -4,5"/>
<!-- n17 -->
<g id="node1" class="node"><title>n17</title>
<ellipse fill="none" stroke="green" cx="114" cy="-162" rx="114.085" ry="18"/>
<text text-anchor="middle" x="114" y="-158.3" font-family="Times,serif" font-size="14.00">annotation_sets/barley.gaf.gz</text>
</g>
<!-- n5 -->
<g id="node23" class="node"><title>n5</title>
<ellipse fill="none" stroke="red" cx="2777" cy="-90" rx="44.271" ry="18"/>
<text text-anchor="middle" x="2777" y="-86.3" font-family="Times,serif" font-size="14.00">json_files</text>
</g>
<!-- n17&#45;&gt;n5 -->
<g id="edge5" class="edge"><title>n17&#45;&gt;n5</title>
<path fill="none" stroke="black" d="M192.237,-148.88C207.386,-146.928 223.161,-145.168 238,-144 745.101,-104.08 2400.8,-93.065 2722.55,-91.2801"/>
<polygon fill="black" stroke="black" points="2722.57,-94.7802 2732.55,-91.2252 2722.54,-87.7803 2722.57,-94.7802"/>
</g>
<!-- n12 -->
<g id="node2" class="node"><title>n12</title>
<ellipse fill="none" stroke="green" cx="363" cy="-162" rx="116.01" ry="18"/>
<text text-anchor="middle" x="363" y="-158.3" font-family="Times,serif" font-size="14.00">annotation_sets/brachy.gaf.gz</text>
</g>
<!-- n12&#45;&gt;n5 -->
<g id="edge6" class="edge"><title>n12&#45;&gt;n5</title>
<path fill="none" stroke="black" d="M442.541,-148.824C457.607,-146.903 473.263,-145.169 488,-144 942.272,-107.964 2418.95,-93.9638 2722.25,-91.4339"/>
<polygon fill="black" stroke="black" points="2722.57,-94.9314 2732.54,-91.3487 2722.51,-87.9317 2722.57,-94.9314"/>
</g>
<!-- n26 -->
<g id="node3" class="node"><title>n26</title>
<ellipse fill="none" stroke="green" cx="642" cy="-162" rx="144.406" ry="18"/>
<text text-anchor="middle" x="642" y="-158.3" font-family="Times,serif" font-size="14.00">annotation_sets/common_bean.gaf.gz</text>
</g>
<!-- n26&#45;&gt;n5 -->
<g id="edge7" class="edge"><title>n26&#45;&gt;n5</title>
<path fill="none" stroke="black" d="M740.888,-148.854C759.188,-146.956 778.154,-145.222 796,-144 1558.3,-91.8186 2488.87,-90.2868 2722.05,-90.7967"/>
<polygon fill="black" stroke="black" points="2722.29,-94.2972 2732.3,-90.8214 2722.31,-87.2972 2722.29,-94.2972"/>
</g>
<!-- n24 -->
<g id="node4" class="node"><title>n24</title>
<ellipse fill="none" stroke="green" cx="947" cy="-162" rx="141.531" ry="18"/>
<text text-anchor="middle" x="947" y="-158.3" font-family="Times,serif" font-size="14.00">annotation_sets/cotton_prelim.gaf.gz</text>
</g>
<!-- n24&#45;&gt;n5 -->
<g id="edge8" class="edge"><title>n24&#45;&gt;n5</title>
<path fill="none" stroke="black" d="M1044.37,-148.872C1062.19,-146.985 1080.63,-145.25 1098,-144 1735.55,-98.1238 2512.12,-91.9528 2722.35,-91.1267"/>
<polygon fill="black" stroke="black" points="2722.52,-94.6262 2732.5,-91.0893 2722.49,-87.6262 2722.52,-94.6262"/>
</g>
<!-- n21 -->
<g id="node5" class="node"><title>n21</title>
<ellipse fill="none" stroke="green" cx="1269" cy="-162" rx="162.228" ry="18"/>
<text text-anchor="middle" x="1269" y="-158.3" font-family="Times,serif" font-size="14.00">annotation_sets/maize.W22.AGPv2.gaf.gz</text>
</g>
<!-- n21&#45;&gt;n5 -->
<g id="edge9" class="edge"><title>n21&#45;&gt;n5</title>
<path fill="none" stroke="black" d="M1381.33,-148.936C1401.19,-147.078 1421.69,-145.336 1441,-144 1937.92,-109.616 2540.47,-95.6363 2722.43,-92.0129"/>
<polygon fill="black" stroke="black" points="2722.62,-95.51 2732.55,-91.8135 2722.48,-88.5113 2722.62,-95.51"/>
</g>
<!-- n25 -->
<g id="node6" class="node"><title>n25</title>
<ellipse fill="none" stroke="green" cx="1618" cy="-162" rx="168.003" ry="18"/>
<text text-anchor="middle" x="1618" y="-158.3" font-family="Times,serif" font-size="14.00">annotation_sets/maize_Mo17.AGPv1.gaf.gz</text>
</g>
<!-- n25&#45;&gt;n5 -->
<g id="edge10" class="edge"><title>n25&#45;&gt;n5</title>
<path fill="none" stroke="black" d="M1735.05,-149.061C1755.04,-147.222 1775.61,-145.454 1795,-144 2148.32,-117.51 2574.1,-99.14 2722.7,-93.1323"/>
<polygon fill="black" stroke="black" points="2723.06,-96.6206 2732.91,-92.7212 2722.78,-89.6263 2723.06,-96.6206"/>
</g>
<!-- n19 -->
<g id="node7" class="node"><title>n19</title>
<ellipse fill="none" stroke="green" cx="2010" cy="-162" rx="206.048" ry="18"/>
<text text-anchor="middle" x="2010" y="-158.3" font-family="Times,serif" font-size="14.00">annotation_sets/maize_PH207.UIUC_UMN&#45;1.0.gaf.gz</text>
</g>
<!-- n19&#45;&gt;n5 -->
<g id="edge11" class="edge"><title>n19&#45;&gt;n5</title>
<path fill="none" stroke="black" d="M2146.68,-148.526C2318.72,-132.825 2605.97,-106.609 2723.95,-95.8416"/>
<polygon fill="black" stroke="black" points="2724.52,-99.3041 2734.16,-94.9096 2723.89,-92.333 2724.52,-99.3041"/>
</g>
<!-- n20 -->
<g id="node8" class="node"><title>n20</title>
<ellipse fill="none" stroke="green" cx="2361" cy="-162" rx="126.608" ry="18"/>
<text text-anchor="middle" x="2361" y="-158.3" font-family="Times,serif" font-size="14.00">annotation_sets/maize_v4.gaf.gz</text>
</g>
<!-- n20&#45;&gt;n5 -->
<g id="edge12" class="edge"><title>n20&#45;&gt;n5</title>
<path fill="none" stroke="black" d="M2439.25,-147.834C2523.59,-133.64 2655.34,-111.472 2726.81,-99.4462"/>
<polygon fill="black" stroke="black" points="2727.62,-102.859 2736.9,-97.7476 2726.46,-95.9556 2727.62,-102.859"/>
</g>
<!-- n15 -->
<g id="node9" class="node"><title>n15</title>
<ellipse fill="none" stroke="green" cx="2637" cy="-162" rx="130.933" ry="18"/>
<text text-anchor="middle" x="2637" y="-158.3" font-family="Times,serif" font-size="14.00">annotation_sets/medicago1.gaf.gz</text>
</g>
<!-- n15&#45;&gt;n5 -->
<g id="edge13" class="edge"><title>n15&#45;&gt;n5</title>
<path fill="none" stroke="black" d="M2670.18,-144.411C2691.55,-133.727 2719.31,-119.845 2741.18,-108.91"/>
<polygon fill="black" stroke="black" points="2742.78,-112.026 2750.15,-104.423 2739.64,-105.765 2742.78,-112.026"/>
</g>
<!-- n14 -->
<g id="node10" class="node"><title>n14</title>
<ellipse fill="none" stroke="green" cx="2918" cy="-162" rx="130.933" ry="18"/>
<text text-anchor="middle" x="2918" y="-158.3" font-family="Times,serif" font-size="14.00">annotation_sets/medicago2.gaf.gz</text>
</g>
<!-- n14&#45;&gt;n5 -->
<g id="edge14" class="edge"><title>n14&#45;&gt;n5</title>
<path fill="none" stroke="black" d="M2884.58,-144.411C2863.07,-133.727 2835.1,-119.845 2813.08,-108.91"/>
<polygon fill="black" stroke="black" points="2814.55,-105.735 2804.04,-104.423 2811.44,-112.005 2814.55,-105.735"/>
</g>
<!-- n23 -->
<g id="node11" class="node"><title>n23</title>
<ellipse fill="none" stroke="green" cx="3183" cy="-162" rx="115.534" ry="18"/>
<text text-anchor="middle" x="3183" y="-158.3" font-family="Times,serif" font-size="14.00">annotation_sets/peanut.gaf.gz</text>
</g>
<!-- n23&#45;&gt;n5 -->
<g id="edge15" class="edge"><title>n23&#45;&gt;n5</title>
<path fill="none" stroke="black" d="M3108.53,-148.161C3026.71,-134.054 2897.56,-111.786 2827.04,-99.627"/>
<polygon fill="black" stroke="black" points="2827.52,-96.1585 2817.07,-97.9085 2826.33,-103.057 2827.52,-96.1585"/>
</g>
<!-- n22 -->
<g id="node12" class="node"><title>n22</title>
<ellipse fill="none" stroke="green" cx="3422" cy="-162" rx="104.937" ry="18"/>
<text text-anchor="middle" x="3422" y="-158.3" font-family="Times,serif" font-size="14.00">annotation_sets/rice.gaf.gz</text>
</g>
<!-- n22&#45;&gt;n5 -->
<g id="edge16" class="edge"><title>n22&#45;&gt;n5</title>
<path fill="none" stroke="black" d="M3346.91,-149.38C3333.63,-147.473 3319.92,-145.6 3307,-144 3132.79,-122.425 2925.51,-103.704 2830,-95.4677"/>
<polygon fill="black" stroke="black" points="2830.28,-91.9785 2820.01,-94.6095 2829.68,-98.9528 2830.28,-91.9785"/>
</g>
<!-- n18 -->
<g id="node13" class="node"><title>n18</title>
<ellipse fill="none" stroke="green" cx="3669" cy="-162" rx="123.234" ry="18"/>
<text text-anchor="middle" x="3669" y="-158.3" font-family="Times,serif" font-size="14.00">annotation_sets/sorghum.gaf.gz</text>
</g>
<!-- n18&#45;&gt;n5 -->
<g id="edge17" class="edge"><title>n18&#45;&gt;n5</title>
<path fill="none" stroke="black" d="M3582.16,-149.17C3566.8,-147.286 3550.94,-145.475 3536,-144 3272.29,-117.961 2955.8,-100.186 2831.18,-93.7128"/>
<polygon fill="black" stroke="black" points="2831.3,-90.2143 2821.14,-93.1938 2830.94,-97.205 2831.3,-90.2143"/>
</g>
<!-- n13 -->
<g id="node14" class="node"><title>n13</title>
<ellipse fill="none" stroke="green" cx="3931" cy="-162" rx="120.334" ry="18"/>
<text text-anchor="middle" x="3931" y="-158.3" font-family="Times,serif" font-size="14.00">annotation_sets/soybean.gaf.gz</text>
</g>
<!-- n13&#45;&gt;n5 -->
<g id="edge18" class="edge"><title>n13&#45;&gt;n5</title>
<path fill="none" stroke="black" d="M3847.19,-149.06C3831.85,-147.154 3815.96,-145.363 3801,-144 3431.22,-110.305 2984.23,-96.3332 2831.32,-92.3134"/>
<polygon fill="black" stroke="black" points="2831.34,-88.8127 2821.25,-92.0519 2831.16,-95.8104 2831.34,-88.8127"/>
</g>
<!-- n16 -->
<g id="node15" class="node"><title>n16</title>
<ellipse fill="none" stroke="green" cx="4183" cy="-162" rx="113.135" ry="18"/>
<text text-anchor="middle" x="4183" y="-158.3" font-family="Times,serif" font-size="14.00">annotation_sets/wheat.gaf.gz</text>
</g>
<!-- n16&#45;&gt;n5 -->
<g id="edge19" class="edge"><title>n16&#45;&gt;n5</title>
<path fill="none" stroke="black" d="M4104.39,-148.99C4089.67,-147.067 4074.39,-145.288 4060,-144 3585.4,-101.498 3008.92,-93.0218 2831.54,-91.3814"/>
<polygon fill="black" stroke="black" points="2831.45,-87.8806 2821.42,-91.2913 2831.39,-94.8803 2831.45,-87.8806"/>
</g>
<!-- n3 -->
<g id="node16" class="node"><title>n3</title>
<ellipse fill="none" stroke="red" cx="3867" cy="-90" rx="89.5377" ry="18"/>
<text text-anchor="middle" x="3867" y="-86.3" font-family="Times,serif" font-size="14.00">build_distance_matrix</text>
</g>
<!-- n2 -->
<g id="node19" class="node"><title>n2</title>
<ellipse fill="none" stroke="red" cx="3322" cy="-18" rx="78.9404" ry="18"/>
<text text-anchor="middle" x="3322" y="-14.3" font-family="Times,serif" font-size="14.00">distance_matrix.txt</text>
</g>
<!-- n3&#45;&gt;n2 -->
<g id="edge2" class="edge"><title>n3&#45;&gt;n2</title>
<path fill="none" stroke="black" d="M3793.78,-79.5958C3690.96,-66.3887 3504.61,-42.4542 3399.51,-28.9557"/>
<polygon fill="black" stroke="black" points="3399.65,-25.4453 3389.29,-27.6427 3398.76,-32.3882 3399.65,-25.4453"/>
</g>
<!-- n4 -->
<g id="node17" class="node"><title>n4</title>
<ellipse fill="none" stroke="green" cx="4665" cy="-162" rx="98.1881" ry="18"/>
<text text-anchor="middle" x="4665" y="-158.3" font-family="Times,serif" font-size="14.00">build_distance_matrix.cr</text>
</g>
<!-- n4&#45;&gt;n3 -->
<g id="edge1" class="edge"><title>n4&#45;&gt;n3</title>
<path fill="none" stroke="black" d="M4595.04,-149.263C4582.08,-147.325 4568.65,-145.471 4556,-144 4344.77,-119.441 4095.72,-103.482 3962.5,-95.9878"/>
<polygon fill="black" stroke="black" points="3962.51,-92.4827 3952.33,-95.4193 3962.12,-99.4718 3962.51,-92.4827"/>
</g>
<!-- n9 -->
<g id="node18" class="node"><title>n9</title>
<ellipse fill="none" stroke="green" cx="4400" cy="-234" rx="98.1881" ry="18"/>
<text text-anchor="middle" x="4400" y="-230.3" font-family="Times,serif" font-size="14.00">create_slim_ontology.py</text>
</g>
<!-- n6 -->
<g id="node25" class="node"><title>n6</title>
<ellipse fill="none" stroke="red" cx="4481" cy="-162" rx="66.4165" ry="18"/>
<text text-anchor="middle" x="4481" y="-158.3" font-family="Times,serif" font-size="14.00">slimGO.json.gz</text>
</g>
<!-- n9&#45;&gt;n6 -->
<g id="edge22" class="edge"><title>n9&#45;&gt;n6</title>
<path fill="none" stroke="black" d="M4419.61,-216.055C4430.01,-207.069 4442.94,-195.895 4454.24,-186.123"/>
<polygon fill="black" stroke="black" points="4456.85,-188.494 4462.13,-179.307 4452.28,-183.198 4456.85,-188.494"/>
</g>
<!-- n10 -->
<g id="node20" class="node"><title>n10</title>
<ellipse fill="none" stroke="red" cx="4355" cy="-162" rx="40.4202" ry="18"/>
<text text-anchor="middle" x="4355" y="-158.3" font-family="Times,serif" font-size="14.00">gaf2json</text>
</g>
<!-- n10&#45;&gt;n5 -->
<g id="edge20" class="edge"><title>n10&#45;&gt;n5</title>
<path fill="none" stroke="black" d="M4325.77,-149.468C4319.05,-147.264 4311.85,-145.256 4305,-144 4157.97,-117.062 3086.69,-96.4959 2831.47,-91.9442"/>
<polygon fill="black" stroke="black" points="2831.39,-88.4424 2821.33,-91.7642 2831.27,-95.4413 2831.39,-88.4424"/>
</g>
<!-- n11 -->
<g id="node21" class="node"><title>n11</title>
<ellipse fill="none" stroke="green" cx="4233" cy="-234" rx="50.0684" ry="18"/>
<text text-anchor="middle" x="4233" y="-230.3" font-family="Times,serif" font-size="14.00">gaf2json.cr</text>
</g>
<!-- n11&#45;&gt;n10 -->
<g id="edge4" class="edge"><title>n11&#45;&gt;n10</title>
<path fill="none" stroke="black" d="M4258.58,-218.326C4277.12,-207.687 4302.34,-193.215 4322.34,-181.74"/>
<polygon fill="black" stroke="black" points="4324.18,-184.716 4331.12,-176.704 4320.7,-178.645 4324.18,-184.716"/>
</g>
<!-- n7 -->
<g id="node22" class="node"><title>n7</title>
<ellipse fill="none" stroke="green" cx="4563" cy="-234" rx="46.2191" ry="18"/>
<text text-anchor="middle" x="4563" y="-230.3" font-family="Times,serif" font-size="14.00">go.obo.gz</text>
</g>
<!-- n7&#45;&gt;n6 -->
<g id="edge23" class="edge"><title>n7&#45;&gt;n6</title>
<path fill="none" stroke="black" d="M4544.39,-217.116C4533.64,-207.939 4519.93,-196.233 4508.01,-186.057"/>
<polygon fill="black" stroke="black" points="4509.98,-183.138 4500.1,-179.307 4505.44,-188.462 4509.98,-183.138"/>
</g>
<!-- n5&#45;&gt;n2 -->
<g id="edge3" class="edge"><title>n5&#45;&gt;n2</title>
<path fill="none" stroke="black" d="M2818.86,-83.6234C2910.05,-71.9114 3127.8,-43.9431 3244.69,-28.9292"/>
<polygon fill="black" stroke="black" points="3245.18,-32.3957 3254.65,-27.6501 3244.29,-25.4527 3245.18,-32.3957"/>
</g>
<!-- n8 -->
<g id="node24" class="node"><title>n8</title>
<ellipse fill="none" stroke="green" cx="4688" cy="-234" rx="61.1419" ry="18"/>
<text text-anchor="middle" x="4688" y="-230.3" font-family="Times,serif" font-size="14.00">obo_parser.py</text>
</g>
<!-- n8&#45;&gt;n6 -->
<g id="edge24" class="edge"><title>n8&#45;&gt;n6</title>
<path fill="none" stroke="black" d="M4649.55,-219.998C4616.1,-208.686 4567.4,-192.218 4530.94,-179.889"/>
<polygon fill="black" stroke="black" points="4531.6,-176.417 4521.01,-176.529 4529.36,-183.048 4531.6,-176.417"/>
</g>
<!-- n6&#45;&gt;n5 -->
<g id="edge21" class="edge"><title>n6&#45;&gt;n5</title>
<path fill="none" stroke="black" d="M4434,-149.181C4424.15,-147.11 4413.78,-145.228 4404,-144 4089.72,-104.532 3078.41,-93.5465 2831.67,-91.4241"/>
<polygon fill="black" stroke="black" points="2831.55,-87.923 2821.52,-91.3381 2831.49,-94.9228 2831.55,-87.923"/>
</g>
</g>
</svg>
